{
    "asset": {
        "version": "2.0",
        "generator": "Open Asset Import Library (assimp v5.0.5eb040c7)"
    },
    "accessors": [
        {
            "bufferView": 0,
            "byteOffset": 0,
            "componentType": 5126,
            "count": 8,
            "type": "VEC3",
            "max": [
                1.0,
                1.0,
                1.0
            ],
            "min": [
                -1.0,
                -1.0,
                -1.0
            ]
        },
        {
            "bufferView": 1,
            "byteOffset": 0,
            "componentType": 5125,
            "count": 36,
            "type": "SCALAR",
            "max": [
                7
            ],
            "min": [
                0
            ]
        },
        {
            "bufferView": 2,
            "byteOffset": 0,
            "componentType": 5126,
            "count": 120,
            "type": "SCALAR",
            "max": [
                4.958333492279053
            ],
            "min": [
                0.0
            ]
        },
        {
            "bufferView": 3,
            "byteOffset": 0,
            "componentType": 5126,
            "count": 120,
            "type": "VEC3",
            "max": [
                1074.924560546875,
                182.0713348388672,
                675.7794189453125
            ],
            "min": [
                -460.0708923339844,
                0.0,
                -760.9412231445313
            ]
        },
        {
            "bufferView": 4,
            "byteOffset": 0,
            "componentType": 5126,
            "count": 120,
            "type": "SCALAR",
            "max": [
                4.958333492279053
            ],
            "min": [
                0.0
            ]
        },
        {
            "bufferView": 5,
            "byteOffset": 0,
            "componentType": 5126,
            "count": 120,
            "type": "VEC4",
            "max": [
                1.3767879636361614e-7,
                0.70710688829422,
                6.181723932741079e-8,
                0.7071067094802856
            ],
            "min": [
                -0.7071068286895752,
                -6.18172535382655e-8,
                -0.7071066498756409,
                -1.376787679419067e-7
            ]
        },
        {
            "bufferView": 6,
            "byteOffset": 0,
            "componentType": 5126,
            "count": 120,
            "type": "SCALAR",
            "max": [
                4.958333492279053
            ],
            "min": [
                0.0
            ]
        },
        {
            "bufferView": 7,
            "byteOffset": 0,
            "componentType": 5126,
            "count": 120,
            "type": "VEC3",
            "max": [
                354.1042175292969,
                354.10418701171877,
                354.10418701171877
            ],
            "min": [
                -47.94015884399414,
                -47.940155029296878,
                -47.940155029296878
            ]
        },
        {
            "bufferView": 8,
            "byteOffset": 0,
            "componentType": 5126,
            "count": 120,
            "type": "SCALAR",
            "max": [
                4.958333492279053
            ],
            "min": [
                0.0
            ]
        },
        {
            "bufferView": 9,
            "byteOffset": 0,
            "componentType": 5126,
            "count": 120,
            "type": "VEC3",
            "max": [
                1074.924560546875,
                182.0713348388672,
                675.7794189453125
            ],
            "min": [
                -460.0708923339844,
                0.0,
                -760.9412231445313
            ]
        },
        {
            "bufferView": 10,
            "byteOffset": 0,
            "componentType": 5126,
            "count": 120,
            "type": "SCALAR",
            "max": [
                4.958333492279053
            ],
            "min": [
                0.0
            ]
        },
        {
            "bufferView": 11,
            "byteOffset": 0,
            "componentType": 5126,
            "count": 120,
            "type": "VEC4",
            "max": [
                -0.7071068286895752,
                0.0,
                0.0,
                0.7071067094802856
            ],
            "min": [
                -0.7071068286895752,
                0.0,
                0.0,
                0.7071067094802856
            ]
        },
        {
            "bufferView": 12,
            "byteOffset": 0,
            "componentType": 5126,
            "count": 120,
            "type": "SCALAR",
            "max": [
                4.958333492279053
            ],
            "min": [
                0.0
            ]
        },
        {
            "bufferView": 13,
            "byteOffset": 0,
            "componentType": 5126,
            "count": 120,
            "type": "VEC3",
            "max": [
                354.1042175292969,
                354.10418701171877,
                354.10418701171877
            ],
            "min": [
                -47.94015884399414,
                -47.940155029296878,
                -47.940155029296878
            ]
        }
    ],
    "animations": [
        {
            "channels": [
                {
                    "sampler": 0,
                    "target": {
                        "node": 1,
                        "path": "translation"
                    }
                },
                {
                    "sampler": 1,
                    "target": {
                        "node": 1,
                        "path": "rotation"
                    }
                },
                {
                    "sampler": 2,
                    "target": {
                        "node": 1,
                        "path": "scale"
                    }
                }
            ],
            "samplers": [
                {
                    "input": 2,
                    "path": "LINEAR",
                    "output": 3
                },
                {
                    "input": 4,
                    "path": "LINEAR",
                    "output": 5
                },
                {
                    "input": 6,
                    "path": "LINEAR",
                    "output": 7
                }
            ]
        },
        {
            "channels": [
                {
                    "sampler": 0,
                    "target": {
                        "node": 1,
                        "path": "translation"
                    }
                },
                {
                    "sampler": 1,
                    "target": {
                        "node": 1,
                        "path": "rotation"
                    }
                },
                {
                    "sampler": 2,
                    "target": {
                        "node": 1,
                        "path": "scale"
                    }
                }
            ],
            "samplers": [
                {
                    "input": 8,
                    "path": "LINEAR",
                    "output": 9
                },
                {
                    "input": 10,
                    "path": "LINEAR",
                    "output": 11
                },
                {
                    "input": 12,
                    "path": "LINEAR",
                    "output": 13
                }
            ]
        }
    ],
    "buffers": [
        {
            "byteLength": 12720,
            "uri": "result.bin"
        }
    ],
    "bufferViews": [
        {
            "buffer": 0,
            "byteOffset": 0,
            "byteLength": 96,
            "target": 34962
        },
        {
            "buffer": 0,
            "byteOffset": 96,
            "byteLength": 144,
            "target": 34963
        },
        {
            "buffer": 0,
            "byteOffset": 240,
            "byteLength": 480,
            "target": 34962
        },
        {
            "buffer": 0,
            "byteOffset": 720,
            "byteLength": 1440,
            "target": 34962
        },
        {
            "buffer": 0,
            "byteOffset": 2160,
            "byteLength": 480,
            "target": 34962
        },
        {
            "buffer": 0,
            "byteOffset": 2640,
            "byteLength": 1920,
            "target": 34962
        },
        {
            "buffer": 0,
            "byteOffset": 4560,
            "byteLength": 480,
            "target": 34962
        },
        {
            "buffer": 0,
            "byteOffset": 5040,
            "byteLength": 1440,
            "target": 34962
        },
        {
            "buffer": 0,
            "byteOffset": 6480,
            "byteLength": 480,
            "target": 34962
        },
        {
            "buffer": 0,
            "byteOffset": 6960,
            "byteLength": 1440,
            "target": 34962
        },
        {
            "buffer": 0,
            "byteOffset": 8400,
            "byteLength": 480,
            "target": 34962
        },
        {
            "buffer": 0,
            "byteOffset": 8880,
            "byteLength": 1920,
            "target": 34962
        },
        {
            "buffer": 0,
            "byteOffset": 10800,
            "byteLength": 480,
            "target": 34962
        },
        {
            "buffer": 0,
            "byteOffset": 11280,
            "byteLength": 1440,
            "target": 34962
        }
    ],
    "materials": [
        {
            "name": "Material",
            "pbrMetallicRoughness": {
                "baseColorFactor": [
                    0.800000011920929,
                    0.800000011920929,
                    0.800000011920929,
                    1.0
                ],
                "metallicFactor": 0.0,
                "roughnessFactor": 0.873508870601654
            }
        }
    ],
    "meshes": [
        {
            "name": "Cube",
            "primitives": [
                {
                    "mode": 4,
                    "material": 0,
                    "indices": 1,
                    "attributes": {
                        "POSITION": 0
                    }
                }
            ]
        }
    ],
    "nodes": [
        {
            "name": "RootNode",
            "children": [
                1
            ]
        },
        {
            "name": "Cube",
            "matrix": [
                146.66554260253907,
                0.0,
                0.0,
                0.0,
                0.0,
                -0.00002389485052844975,
                -146.66554260253907,
                0.0,
                0.0,
                146.66554260253907,
                -0.00002389485052844975,
                0.0,
                440.62689208984377,
                182.0713348388672,
                64.81399536132813,
                1.0
            ],
            "mesh": 0
        }
    ],
    "scenes": [
        {
            "nodes": [
                0
            ]
        }
    ],
    "scene": 0
}